<svg width="120" height="120" viewBox="0 0 120 120" fill="none" xmlns="http://www.w3.org/2000/svg">
<path d="M60.1452 61.309L60.2537 61.2985L62.4331 64.1834L62.5358 64.3216L62.7773 64.6518L63.4224 65.4995L63.6973 65.8719L63.7165 65.9047L63.7283 65.9022L64.3091 66.6774L67.9726 71.5364L69.887 74.096L99.2525 113.067L65.9929 118.729L61.7056 76.6879L60.9544 69.3119L60.8217 68.037L60.7816 67.5538L60.7791 67.5421L60.6266 66.173L60.5995 65.81L60.5606 65.4495L60.4569 64.4881L60.3631 63.5737L60.1452 61.309Z" fill="white"/>
<path d="M59.8547 61.309L59.7463 61.2985L57.5669 64.1834L57.4641 64.3216L57.2227 64.6518L56.5775 65.4995L56.3026 65.8719L56.2834 65.9047L56.2717 65.9022L55.6909 66.6774L52.0274 71.5364L50.113 74.096L20.7475 113.067L54.0071 118.729L58.2944 76.6879L59.0455 69.3119L59.1783 68.037L59.2183 67.5538L59.2208 67.5421L59.3733 66.173L59.4004 65.81L59.4393 65.4495L59.5431 64.4881L59.6369 63.5737L59.8547 61.309Z" fill="white"/>
<path d="M61.3088 59.8547L61.2984 59.7463L64.1833 57.5669L64.3215 57.4642L64.6517 57.2227L65.4994 56.5776L65.8718 56.3027L65.9046 56.2835L65.9021 56.2717L66.6773 55.6909L71.5363 52.0275L74.0959 50.1131L113.067 20.7476L118.729 54.0071L76.6878 58.2944L69.3118 59.0456L68.0369 59.1783L67.5537 59.2184L67.542 59.2209L66.1729 59.3734L65.8099 59.4005L65.4494 59.4394L64.488 59.5431L63.5736 59.6369L61.3088 59.8547Z" fill="white"/>
<path d="M61.3088 60.1453L61.2984 60.2537L64.1833 62.4331L64.3215 62.5358L64.6517 62.7773L65.4994 63.4224L65.8718 63.6973L65.9046 63.7165L65.9021 63.7283L66.6773 64.3091L71.5363 67.9725L74.0959 69.8869L113.067 99.2524L118.729 65.9929L76.6878 61.7056L69.3118 60.9544L68.0369 60.8217L67.5537 60.7816L67.542 60.7791L66.1729 60.6266L65.8099 60.5995L65.4494 60.5606L64.488 60.4569L63.5736 60.3631L61.3088 60.1453Z" fill="white"/>
<path d="M59.8547 58.691L59.7463 58.7015L57.5669 55.8166L57.4641 55.6784L57.2227 55.3482L56.5775 54.5005L56.3026 54.1281L56.2834 54.0953L56.2717 54.0978L55.6909 53.3226L52.0274 48.4636L50.113 45.904L20.7475 6.93323L54.0071 1.27127L58.2944 43.3121L59.0456 50.6881L59.1783 51.963L59.2184 52.4462L59.2208 52.4579L59.3733 53.827L59.4005 54.19L59.4394 54.5505L59.5431 55.5119L59.6369 56.4263L59.8547 58.691Z" fill="white"/>
<path d="M60.1453 58.691L60.2537 58.7015L62.4331 55.8166L62.5359 55.6784L62.7773 55.3482L63.4225 54.5005L63.6974 54.1281L63.7166 54.0953L63.7283 54.0978L64.3091 53.3226L67.9726 48.4636L69.887 45.904L99.2525 6.93323L65.9929 1.27127L61.7056 43.3121L60.9545 50.6881L60.8217 51.963L60.7817 52.4462L60.7792 52.4579L60.6267 53.827L60.5996 54.19L60.5607 54.5505L60.4569 55.5119L60.3631 56.4263L60.1453 58.691Z" fill="white"/>
<path d="M58.6912 60.1453L58.7016 60.2537L55.8167 62.4331L55.6785 62.5358L55.3483 62.7773L54.5006 63.4224L54.1282 63.6973L54.0954 63.7165L54.0979 63.7283L53.3227 64.3091L48.4637 67.9725L45.9041 69.8869L6.93318 99.2524L1.2712 65.9929L43.3122 61.7056L50.6882 60.9544L51.9631 60.8217L52.4463 60.7816L52.458 60.7791L53.8271 60.6266L54.1901 60.5995L54.5506 60.5606L55.512 60.4569L56.4264 60.3631L58.6912 60.1453Z" fill="white"/>
<path d="M58.6912 59.8546L58.7016 59.7462L55.8167 57.5668L55.6785 57.464L55.3483 57.2226L54.5006 56.5774L54.1282 56.3025L54.0954 56.2833L54.0979 56.2716L53.3227 55.6908L48.4637 52.0273L45.9041 50.1129L6.93318 20.7475L1.2712 54.007L43.3122 58.2943L50.6882 59.0455L51.9631 59.1782L52.4463 59.2183L52.458 59.2207L53.8271 59.3732L54.1901 59.4004L54.5506 59.4392L55.512 59.543L56.4264 59.6368L58.6912 59.8546Z" fill="white"/>
</svg>
