<svg width="668" height="659" viewBox="0 0 668 659" fill="none" xmlns="http://www.w3.org/2000/svg">
<path d="M634.152 133.333L540.819 366.667H267.486L174.152 133.333H634.152Z" fill="#083D77"/>
<path d="M300.819 616.667H304.152M500.819 616.667H504.152" stroke="#F4D35E" stroke-width="83.3333" stroke-linecap="round" stroke-linejoin="round"/>
<path d="M34.1523 33.3333H111.486C118.162 33.3268 124.686 35.3251 130.213 39.0693C135.74 42.8135 140.016 48.1311 142.486 54.3333L267.486 366.667L224.819 451.667C222.249 456.766 221.032 462.44 221.286 468.145C221.539 473.85 223.253 479.394 226.265 484.246C229.276 489.098 233.484 493.095 238.484 495.853C243.484 498.612 249.109 500.04 254.819 500H567.486" stroke="#F4D35E" stroke-width="66.6667" stroke-linecap="round" stroke-linejoin="round"/>
<path d="M174.152 133.333H627.486H634.152L540.819 366.667H267.486" stroke="#F4D35E" stroke-width="66.6667" stroke-linecap="round" stroke-linejoin="round"/>
</svg>
