<svg width="801" height="560" viewBox="0 0 801 560" fill="none" xmlns="http://www.w3.org/2000/svg">
<path d="M726.552 194.4L640.152 180L532.152 54C528.397 49.6094 523.735 46.0844 518.487 43.6676C513.239 41.2509 507.53 39.9996 501.752 40H320.152C309.544 40 299.37 44.2143 291.868 51.7157C284.367 59.2172 280.152 69.3913 280.152 80V200H80.1523C69.5437 200 59.3695 204.214 51.8681 211.716C44.3666 219.217 40.1523 229.391 40.1523 240V400C40.1523 410.609 44.3666 420.783 51.8681 428.284C59.3695 435.786 69.5437 440 80.1523 440H120.152C120.152 418.783 128.581 398.434 143.584 383.431C158.587 368.429 178.935 360 200.152 360C221.37 360 241.718 368.429 256.721 383.431C271.724 398.434 280.152 418.783 280.152 440H520.152C520.152 418.783 528.581 398.434 543.584 383.431C558.587 368.429 578.935 360 600.152 360C621.37 360 641.718 368.429 656.721 383.431C671.724 398.434 680.152 418.783 680.152 440H720.152C730.761 440 740.935 435.786 748.437 428.284C755.938 420.783 760.152 410.609 760.152 400V234C760.18 224.481 756.812 215.264 750.653 208.006C744.494 200.747 735.949 195.923 726.552 194.4Z" fill="#083D77"/>
<path d="M120.152 440H80.1523C69.5437 440 59.3695 435.786 51.8681 428.284C44.3666 420.783 40.1523 410.609 40.1523 400V240C40.1523 229.391 44.3666 219.217 51.8681 211.716C59.3695 204.214 69.5437 200 80.1523 200H280.152V80C280.152 69.3913 284.367 59.2172 291.868 51.7157C299.37 44.2143 309.544 40 320.152 40H501.752C507.53 39.9996 513.239 41.2509 518.487 43.6676C523.735 46.0844 528.397 49.6094 532.152 54L640.152 180L726.552 194.4C736.017 195.933 744.617 200.816 750.784 208.158C756.951 215.499 760.276 224.812 760.152 234.4V400C760.152 410.609 755.938 420.783 748.437 428.284C740.935 435.786 730.761 440 720.152 440H680.152" stroke="#F4D35E" stroke-width="80" stroke-linecap="round" stroke-linejoin="round"/>
<path d="M520.152 440H280.152M280.152 440C280.152 455.823 275.46 471.29 266.67 484.446C257.879 497.602 245.385 507.855 230.767 513.91C216.149 519.965 200.064 521.55 184.545 518.463C169.027 515.376 154.772 507.757 143.584 496.569C132.396 485.38 124.776 471.126 121.69 455.607C118.603 440.089 120.187 424.003 126.242 409.385C132.297 394.767 142.551 382.273 155.707 373.482C168.863 364.692 184.33 360 200.152 360C221.37 360 241.718 368.429 256.721 383.431C271.724 398.434 280.152 418.783 280.152 440ZM680.152 440C680.152 455.823 675.46 471.29 666.67 484.446C657.879 497.602 645.385 507.855 630.767 513.91C616.149 519.965 600.064 521.55 584.545 518.463C569.027 515.376 554.772 507.757 543.584 496.569C532.396 485.38 524.776 471.126 521.69 455.607C518.603 440.089 520.187 424.003 526.242 409.385C532.297 394.767 542.551 382.273 555.707 373.482C568.863 364.692 584.33 360 600.152 360C621.37 360 641.718 368.429 656.721 383.431C671.724 398.434 680.152 418.783 680.152 440Z" stroke="#F4D35E" stroke-width="80" stroke-linecap="round" stroke-linejoin="round"/>
</svg>
