<svg width="739" height="740" viewBox="0 0 739 740" fill="none" xmlns="http://www.w3.org/2000/svg">
<path d="M231.549 0.615235H92.3181C67.6974 0.939183 44.1974 10.958 26.9165 28.4981C9.63562 46.0382 -0.0322432 69.6848 0.010386 94.3075V181.692C-0.173205 193.93 2.07883 206.083 6.63546 217.442C11.1921 228.802 17.9623 239.142 26.5522 247.86C35.1421 256.579 45.3802 263.503 56.6707 268.228C67.9612 272.953 80.0787 275.386 92.3181 275.384H231.549C243.788 275.386 255.906 272.953 267.196 268.228C278.487 263.503 288.725 256.579 297.315 247.86C305.905 239.142 312.675 228.802 317.231 217.442C321.788 206.083 324.04 193.93 323.857 181.692V94.3075C324.04 82.0695 321.788 69.9171 317.231 58.5576C312.675 47.198 305.905 36.858 297.315 28.1392C288.725 19.4205 278.487 12.497 267.196 7.7718C255.906 3.04656 243.788 0.613858 231.549 0.615235ZM181.395 200.615H143.087C126.521 200.615 110.634 194.034 98.9203 182.321C87.2065 170.607 80.6258 154.72 80.6258 138.154C80.6258 121.588 87.2065 105.701 98.9203 93.9867C110.634 82.2729 126.521 75.6922 143.087 75.6922H181.395C197.961 75.6922 213.848 82.2729 225.562 93.9867C237.276 105.701 243.857 121.588 243.857 138.154C243.857 154.72 237.276 170.607 225.562 182.321C213.848 194.034 197.961 200.615 181.395 200.615Z" fill="#F4D35E"/>
<path d="M498.78 275.384H637.241C649.481 275.386 661.598 272.953 672.889 268.228C684.179 263.503 694.417 256.579 703.007 247.86C711.597 239.142 718.367 228.802 722.924 217.442C727.48 206.083 729.733 193.93 729.549 181.692V94.3075C729.733 82.0695 727.48 69.9171 722.924 58.5576C718.367 47.198 711.597 36.858 703.007 28.1392C694.417 19.4205 684.179 12.497 672.889 7.7718C661.598 3.04656 649.481 0.613858 637.241 0.615235H498.78C486.54 0.613858 474.423 3.04656 463.132 7.7718C451.842 12.497 441.604 19.4205 433.014 28.1392C424.424 36.858 417.654 47.198 413.097 58.5576C408.54 69.9171 406.288 82.0695 406.472 94.3075V181.692C406.288 193.93 408.54 206.083 413.097 217.442C417.654 228.802 424.424 239.142 433.014 247.86C441.604 256.579 451.842 263.503 463.132 268.228C474.423 272.953 486.54 275.386 498.78 275.384ZM548.78 75.3845H587.087C603.653 75.3845 619.541 81.9652 631.254 93.679C642.968 105.393 649.549 121.28 649.549 137.846C649.549 154.412 642.968 170.299 631.254 182.013C619.541 193.727 603.653 200.308 587.087 200.308H548.78C532.214 200.308 516.327 193.727 504.613 182.013C492.899 170.299 486.318 154.412 486.318 137.846C486.318 121.28 492.899 105.393 504.613 93.679C516.327 81.9652 532.214 75.3845 548.78 75.3845Z" fill="#F4D35E"/>
<path d="M231.549 350.308H92.3182C67.6975 350.632 44.1975 360.65 26.9166 378.191C9.63577 395.731 -0.0320957 419.377 0.0105334 444V531.538C-0.0719282 556.159 9.58782 579.812 26.8815 597.337C44.1753 614.861 67.6988 624.833 92.3182 625.077H231.549C256.168 624.833 279.692 614.861 296.986 597.337C314.279 579.812 323.939 556.159 323.857 531.538V444C324.04 431.762 321.788 419.61 317.232 408.25C312.675 396.89 305.905 386.55 297.315 377.832C288.725 369.113 278.487 362.189 267.196 357.464C255.906 352.739 243.788 350.306 231.549 350.308ZM181.395 550.308H143.087C126.522 550.308 110.634 543.727 98.9205 532.013C87.2067 520.299 80.6259 504.412 80.6259 487.846C80.6259 471.28 87.2067 455.393 98.9205 443.679C110.634 431.965 126.522 425.385 143.087 425.385H181.395C197.961 425.385 213.848 431.965 225.562 443.679C237.276 455.393 243.857 471.28 243.857 487.846C243.857 504.412 237.276 520.299 225.562 532.013C213.848 543.727 197.961 550.308 181.395 550.308Z" fill="#F4D35E"/>
<path d="M572.01 350.308C479.703 350.308 405.703 419.077 405.703 504.923C405.703 611.692 524.78 709.538 561.549 735.692C564.686 738.088 568.524 739.385 572.472 739.385C576.419 739.385 580.257 738.088 583.395 735.692C620.164 708.308 738.472 611.692 738.472 504.923C738.472 419.077 664.01 350.308 572.01 350.308ZM572.01 568.769C554.157 569.394 536.78 562.937 523.668 550.804C510.556 538.672 502.771 521.848 502.01 504C503.44 486.396 511.443 469.976 524.427 458.003C537.411 446.031 554.426 439.384 572.087 439.384C589.749 439.384 606.763 446.031 619.747 458.003C632.732 469.976 640.734 486.396 642.164 504C641.404 521.876 633.598 538.723 620.452 550.86C607.306 562.997 589.89 569.436 572.01 568.769Z" fill="#083D77"/>
</svg>
