<svg width="19" height="20" viewBox="0 0 19 20" fill="none" xmlns="http://www.w3.org/2000/svg">
<path fill-rule="evenodd" clip-rule="evenodd" d="M19 7.2973V12.7027C19 15.2509 19 16.5249 18.1935 17.3166C17.4608 18.0357 16.3224 18.1014 14.1735 18.1076C14.287 17.3582 14.3108 16.4631 14.3167 15.4099C14.3193 14.9621 13.9515 14.5971 13.4953 14.5946C13.0391 14.5921 12.6671 14.9531 12.6646 15.4009C12.6579 16.583 12.6266 17.421 12.5076 18.0569C12.3929 18.6697 12.2088 19.0243 11.9407 19.2876C11.6358 19.5868 11.2079 19.7819 10.3996 19.8884C9.56762 19.9983 8.46495 20 6.88392 20H5.78248C4.20157 20 3.0989 19.9983 2.26692 19.8884C1.45864 19.7819 1.03069 19.5868 0.725912 19.2876C0.421017 18.9883 0.2223 18.5682 0.113665 17.775C0.00178909 16.9584 0 15.8761 0 14.3243V5.67568C0 4.12388 0.00178909 3.04159 0.113665 2.225C0.2223 1.43172 0.421017 1.01164 0.725912 0.712445C1.03069 0.413245 1.45864 0.218167 2.26692 0.111511C3.0989 0.00172213 4.20157 0 5.78248 0H6.88392C8.46495 0 9.56762 0.00172213 10.3996 0.111511C11.2079 0.218167 11.6358 0.413245 11.9407 0.712445C12.2088 0.975633 12.3929 1.33031 12.5076 1.94308C12.6266 2.57902 12.6579 3.41694 12.6646 4.59911C12.6671 5.0469 13.0391 5.40789 13.4953 5.40539C13.9515 5.4029 14.3193 5.03788 14.3167 4.59008C14.3108 3.53691 14.287 2.64176 14.1735 1.8925C16.3224 1.89852 17.4608 1.96432 18.1935 2.6835C19 3.4751 19 4.74917 19 7.2973ZM16.2798 10.5733C16.6024 10.2567 16.6024 9.74333 16.2798 9.42667L14.0769 7.26451C13.7543 6.94787 13.2313 6.94787 12.9087 7.26451C12.5861 7.58116 12.5861 8.09456 12.9087 8.41122L13.7014 9.18922H5.78282C5.32659 9.18922 4.95665 9.55222 4.95665 10C4.95665 10.4478 5.32659 10.8108 5.78282 10.8108H13.7014L12.9087 11.5888C12.5861 11.9054 12.5861 12.4189 12.9087 12.7354C13.2313 13.0521 13.7543 13.0521 14.0769 12.7354L16.2798 10.5733Z" fill="#1D1D1D"/>
</svg>
