<svg width="754" height="702" viewBox="0 0 754 702" fill="none" xmlns="http://www.w3.org/2000/svg">
<path d="M283.981 12.3823H469.487C488.684 12.3823 504.811 28.4949 504.812 48.9761V108.241H541.487C577.07 108.241 608.627 137.394 636.134 188.847C663.215 239.504 684.077 307.672 699.822 376.687C715.529 445.536 725.98 514.479 732.505 566.271C735.765 592.151 738.041 613.711 739.5 628.788C740.23 636.325 740.755 642.24 741.098 646.262C741.269 648.273 741.394 649.811 741.477 650.841C741.512 651.289 741.539 651.641 741.559 651.894C741.334 671.795 723.3 689.618 699.04 689.618H54.1465C29.923 689.618 11.8754 671.776 11.6748 651.853C11.6931 651.598 11.7196 651.237 11.7539 650.774C11.83 649.744 11.9461 648.206 12.1055 646.196C12.4243 642.175 12.9153 636.26 13.6025 628.724C14.9772 613.649 17.1353 592.091 20.2646 566.214C26.5274 514.427 36.663 445.492 52.1543 376.654C67.6835 307.647 88.4312 239.502 115.64 188.869C143.237 137.511 175.182 108.241 211.652 108.241H248.705V48.9761C248.705 28.4797 264.8 12.3825 283.981 12.3823ZM270.411 624.147H484.094V507.03H270.411V624.147ZM505.329 624.147H641.487C668.735 624.147 693.111 603.884 693.176 576.581L693.177 576.06L693.131 575.542L681.676 576.553C692.778 575.574 693.12 575.543 693.131 575.542V575.536C693.131 575.532 693.129 575.527 693.129 575.521C693.128 575.508 693.127 575.49 693.125 575.466C693.121 575.42 693.114 575.352 693.106 575.263C693.09 575.086 693.067 574.825 693.035 574.482C692.972 573.796 692.876 572.782 692.747 571.456C692.489 568.804 692.097 564.902 691.558 559.869C690.479 549.803 688.81 535.21 686.444 517.044L685.141 507.03H505.329V624.147ZM60.0107 575.764V576.223C60.0107 603.512 83.9751 624.147 111.417 624.147H247.905V507.03H67.6182L66.3584 517.103C64.0639 535.459 62.4889 549.974 61.4863 559.917C60.985 564.888 60.6272 568.718 60.3936 571.313C60.2767 572.611 60.1906 573.6 60.1338 574.269C60.1054 574.604 60.0846 574.858 60.0703 575.032C60.0632 575.118 60.0574 575.185 60.0537 575.231C60.0519 575.254 60.0508 575.271 60.0498 575.284C60.0493 575.29 60.0482 575.296 60.0479 575.299V575.305C60.0478 575.306 60.0477 575.306 71.5107 576.223L60.0479 575.306L60.0107 575.764ZM87.498 371.911C80.3579 406.326 75.1386 441.652 71.0859 470.68L69.2588 483.771H247.905V362.747H89.3994L87.498 371.911ZM268.999 483.771H482.211V362.747H268.999V483.771ZM505.281 483.723H684.37L682.521 470.618C678.366 441.149 672.772 405.193 665.496 370.432L663.583 361.289H505.281V483.723ZM125.891 228.064C113.913 258.54 104.256 294.193 96.4355 328.744L93.2588 342.783H248.376V220.771H128.757L125.891 228.064ZM268.999 342.783H483.67V220.771H268.999V342.783ZM503.306 342.783H658.922L655.655 328.686C647.531 293.624 637.594 258.832 625.509 228.066L622.644 220.771H503.306V342.783ZM296.923 30.606C282.72 30.606 269.894 41.6049 269.894 56.647V108.289H483.623V56.647C483.623 41.605 470.796 30.6061 456.594 30.606H296.923Z" fill="#EE964B" stroke="#1D1D1D" stroke-width="23"/>
</svg>
