<svg width="669" height="800" viewBox="0 0 669 800" fill="none" xmlns="http://www.w3.org/2000/svg">
<path d="M531.139 598.667L533.806 600C533.806 600 613.806 596 613.806 666.667C613.806 666.667 609.806 749.334 520.473 777.334C501.806 782.667 520.473 786.667 493.806 786.667V653.334C531.139 653.333 515.139 629.333 531.139 598.667Z" fill="#EE964B"/>
<path d="M573.805 600L571.138 598.667C569.805 601.334 568.47 602.667 567.138 605.334C588.47 612.002 613.805 628.002 613.805 668.002C613.805 668.002 609.805 750.669 520.472 778.669C504.472 784.002 515.139 786.669 501.805 788.002C647.137 782.669 653.805 666.669 653.805 666.669C653.805 596 573.805 600 573.805 600Z" fill="#EE964B"/>
<path d="M136.472 598.667L133.805 600C133.805 600 53.8047 596 53.8047 666.667C53.8047 666.667 57.8047 749.334 147.138 777.334C165.805 782.667 147.138 786.667 173.805 786.667V653.334C136.472 653.333 152.472 629.333 136.472 598.667Z" fill="#EE964B"/>
<path d="M93.8047 600L96.4719 598.667C97.8047 601.334 99.1391 602.667 100.472 605.334C77.8047 610.667 53.8047 628.002 53.8047 666.667C53.8047 666.667 57.8047 749.334 147.138 777.334C163.138 782.667 152.47 785.334 165.805 786.667C20.4719 782.667 13.8047 666.667 13.8047 666.667C13.8047 596 93.8047 600 93.8047 600Z" fill="white"/>
<path d="M583.139 454.667L535.139 253.334C511.139 178.667 373.806 173.334 333.806 173.334C369.806 173.334 484.473 180.002 503.139 253.334L543.139 454.667C547.139 473.334 547.139 493.334 545.806 513.334C539.139 558.667 521.806 636.002 475.139 650.667C480.472 652 483.139 653.335 483.139 653.335C553.806 653.335 577.806 562.667 585.806 513.334C588.472 493.333 587.139 473.333 583.139 454.667Z" fill="#EE964B"/>
<path d="M555.131 454.411L511.74 253.158C485.705 165.192 315.032 173.189 315.032 173.189C315.032 173.189 144.36 165.192 118.325 253.158L74.934 454.411C70.5949 473.071 70.5949 493.063 73.4882 513.055C80.7207 563.702 102.416 653 168.949 653C168.949 653 236.93 626.343 316.48 626.343C396.03 626.343 464.011 653 464.011 653C529.098 653 550.793 562.369 559.472 513.055C559.47 493.061 559.47 473.069 555.131 454.411Z" fill="#EE964B"/>
<path d="M112.472 513.333C109.805 493.333 111.139 473.333 115.139 454.666L155.139 253.333C175.139 180 288.472 173.333 324.472 173.333C283.139 173.333 145.805 178.666 123.139 253.333L75.1389 454.666C71.1389 473.333 69.8061 493.333 72.4717 513.333C80.4717 562.666 104.472 653.333 175.139 653.333C175.139 653.333 177.806 652 183.139 650.666C136.472 636 119.139 558.667 112.472 513.333Z" fill="white"/>
<path d="M173.805 653.333V786.666H493.805V653.333C493.805 653.333 420.472 626.666 333.805 626.666C247.137 626.666 173.805 653.333 173.805 653.333Z" fill="#EE964B"/>
<path d="M444.472 120H223.139C207.139 120 196.472 100 201.806 80.0002L215.139 32.0002C219.139 21.333 227.139 13.333 236.472 13.333H431.139C440.472 13.333 448.472 21.333 452.472 32.0002L465.805 80.0002C471.139 100 460.472 120 444.472 120Z" fill="#EE964B"/>
<path d="M201.805 80.0002L215.137 32.0002C219.137 21.333 227.137 13.333 236.47 13.333H207.137C195.137 13.333 184.47 21.333 179.137 32.0002L161.805 80.0002C155.137 98.6674 168.472 120 189.805 120H223.137C207.139 120 196.472 100 201.805 80.0002Z" fill="white"/>
<path d="M505.805 80.0002L488.472 32.0002C483.139 21.333 472.472 13.333 459.139 13.333H429.806C439.139 13.333 447.139 21.333 451.139 32.0002L464.472 80.0002C469.805 98.6674 459.139 120 443.139 120H476.472C497.805 120 512.472 100 505.805 80.0002Z" fill="#EE964B"/>
<path d="M333.804 173.333C333.804 173.333 377.805 172 427.137 180V120H240.472V180C289.804 172 333.804 173.333 333.804 173.333Z" fill="#EE964B"/>
<path d="M515.139 513.333C508.472 545.333 477.806 565.333 447.139 558.666C415.139 551.998 376.472 546.666 333.806 546.666C291.141 546.666 252.473 551.998 220.473 558.666C189.806 565.333 157.806 545.333 152.473 513.333C151.14 509.333 151.14 505.333 149.806 500C148.473 490.667 148.473 481.333 151.139 472L189.806 306.667C195.139 285.334 211.139 269.334 231.139 264C253.806 257.333 283.139 253.333 320.472 253.333C325.805 253.333 328.472 253.333 329.805 253.333H333.805H337.805C337.805 253.333 341.805 253.333 347.137 253.333C384.47 253.333 415.137 257.333 436.47 264C457.803 269.333 473.803 286.667 477.803 306.667L516.47 473.334C519.137 482.667 519.137 492.002 517.803 501.334C516.472 505.333 516.472 509.333 515.139 513.333Z" fill="#EE964B"/>
<path d="M493.805 666.667H491.137L488.47 665.334C487.137 665.334 416.47 640.002 332.47 640.002C249.803 640.002 177.803 665.334 176.47 665.334V666.667H173.803C113.803 666.667 73.8029 613.334 57.8029 514.667C53.8029 493.334 55.1358 472 60.4701 450.667L107.137 250.667C137.805 152 325.805 160 333.805 160C340.472 160 528.472 152 559.137 249.333L607.137 450.666C612.47 471.998 612.47 493.333 609.805 514.666C593.805 613.333 553.805 666.667 493.805 666.667ZM320.472 186.667C263.139 186.667 152.472 198.667 133.805 257.334L87.1373 457.334C83.1373 474.667 81.8045 493.334 84.4701 510.667C92.4701 558.667 113.803 637.334 172.47 640C185.803 634.667 253.803 613.333 335.137 613.333C415.137 613.333 483.137 634.666 497.805 640C556.472 638.667 577.805 558.667 585.805 510.667C588.472 493.334 588.472 474.667 583.137 457.334L533.805 256C513.805 192 383.137 184 333.805 186.667C329.805 186.667 325.804 186.667 320.472 186.667Z" fill="#1D1D1D"/>
<path d="M208.472 573.333C175.139 573.333 145.804 549.333 139.139 516C137.806 512 137.806 508 136.472 502.667C135.139 492 135.139 481.334 137.804 469.334L176.472 302.667C183.139 277.334 201.804 256 228.472 249.334C247.139 244.002 277.804 238.667 320.472 238.667C325.804 238.667 340.472 238.667 345.804 238.667C388.472 238.667 420.472 244 437.804 249.334C463.137 256.002 483.137 276.002 489.804 302.667L528.472 469.334C531.139 480.002 531.139 492.002 529.804 502.667C528.472 506.667 528.472 512 527.137 516C519.137 554.667 481.804 580 443.137 572C405.804 564 368.47 560 333.804 560C299.139 560 261.804 564 223.137 572C219.139 572 213.804 573.333 208.472 573.333ZM333.804 533.333C371.137 533.333 409.804 537.333 449.804 545.333C473.804 550.666 497.805 534.666 503.137 510.666C504.47 506.666 504.47 502.666 505.805 498.666C507.137 490.666 507.137 483.999 504.472 475.999L465.805 309.331C461.805 293.331 449.804 279.999 433.804 275.999C415.137 271.999 387.137 266.666 347.137 266.666C343.137 266.666 339.137 266.666 339.137 266.666H333.804H329.804C328.472 266.666 325.804 266.666 320.472 266.666C280.472 266.666 251.139 271.999 235.139 275.999C219.139 279.999 207.139 293.331 203.139 309.331L164.472 476C163.139 484 161.804 492 163.139 498.667C163.139 502.667 164.472 506.667 165.806 510.667C171.139 534.667 193.806 550.667 219.139 545.334C257.804 537.333 296.472 533.333 333.804 533.333Z" fill="#1D1D1D"/>
<path d="M187.139 800H173.806C9.80448 800 0.47168 669.333 0.47168 668C0.47168 644 8.47168 625.333 23.1389 610.667C45.8061 589.334 79.1389 586.667 91.1389 586.667L103.139 581.334L109.806 593.335C125.806 624.002 147.139 640.002 173.806 640.002H187.139V800ZM89.8045 613.333C80.4717 613.333 56.4717 614.666 40.4717 629.333C31.1389 638.666 27.1389 650.666 27.1389 666.666C27.1389 670.666 35.1389 766.666 160.472 773.333V666.666C132.472 661.333 108.472 644 89.8045 613.333Z" fill="#1D1D1D"/>
<path d="M493.804 800H480.472V640H493.804C520.472 640 541.805 624 559.137 592L565.805 580L577.804 585.333C588.472 585.333 623.137 588 645.804 609.333C660.472 622.666 668.472 642.666 668.472 665.333C667.139 669.333 657.804 800 493.804 800ZM507.139 665.333V772C633.806 765.333 640.472 669.333 640.472 665.333C640.472 650.666 636.472 638.666 627.139 629.333C611.139 614.666 587.139 613.333 577.806 613.333C559.139 644 535.139 661.333 507.139 665.333Z" fill="#1D1D1D"/>
<path d="M507.139 800H160.472V644L169.805 641.333C172.472 640 245.804 613.333 333.804 613.333C421.805 613.333 495.137 640 497.804 641.333L507.137 644L507.139 800ZM187.139 773.333H480.472V662.666C459.139 655.998 400.472 639.998 333.804 639.998C267.137 639.998 208.472 655.998 187.137 662.666V773.333H187.139Z" fill="#1D1D1D"/>
<path d="M477.804 133.333H189.804C175.137 133.333 163.137 126.666 155.137 114.666C147.137 102.666 145.804 87.9984 149.804 74.6656L167.137 26.6656C173.804 10.6672 189.804 0 207.139 0H459.139C476.472 0 492.472 10.6672 499.139 28L516.472 76C521.805 89.3328 519.139 104 511.139 116C505.804 126.667 492.472 133.333 477.804 133.333ZM207.139 26.6672C200.472 26.6672 193.806 30.6672 192.472 37.3344L175.139 85.3344C173.806 90.6672 173.806 96.0016 176.472 100.002C179.137 104.002 184.472 106.669 189.804 106.669H477.804C483.137 106.669 488.472 104.002 491.137 100.002C493.803 96.0016 495.137 90.6687 492.47 85.3344L475.137 37.3344C472.47 30.6672 467.137 26.6672 460.47 26.6672H207.139Z" fill="#1D1D1D"/>
<path d="M227.139 560C219.139 560 213.806 554.667 213.806 546.667V506.667C213.806 498.667 219.139 493.334 227.139 493.334C235.139 493.334 240.472 498.667 240.472 506.667V546.667C240.472 554.667 235.139 560 227.139 560Z" fill="#1D1D1D"/>
<path d="M280.471 560C272.471 560 267.139 554.667 267.139 546.667V493.334C267.139 485.334 272.471 480.001 280.471 480.001C288.471 480.001 293.804 485.334 293.804 493.334V546.667C293.804 554.667 288.471 560 280.471 560Z" fill="#1D1D1D"/>
<path d="M387.139 560C379.139 560 373.806 554.667 373.806 546.667V493.334C373.806 485.334 379.139 480.001 387.139 480.001C395.139 480.001 400.472 485.334 400.472 493.334V546.667C400.472 554.667 395.139 560 387.139 560Z" fill="#1D1D1D"/>
<path d="M440.471 560C432.471 560 427.139 554.667 427.139 546.667V506.667C427.139 498.667 432.471 493.334 440.471 493.334C448.471 493.334 453.804 498.667 453.804 506.667V546.667C453.804 554.667 448.471 560 440.471 560Z" fill="#1D1D1D"/>
<path d="M333.804 560C325.804 560 320.472 554.667 320.472 546.667V480C320.472 472 325.804 466.667 333.804 466.667C341.804 466.667 347.137 472 347.137 480V546.667C347.139 554.667 341.804 560 333.804 560Z" fill="#1D1D1D"/>
<path d="M227.139 196V106.667H440.471V196L424.471 193.333C377.804 185.333 335.139 186.666 333.804 186.666C333.804 186.666 289.804 185.333 243.137 193.333L227.139 196ZM347.139 160C361.806 160 387.139 161.333 413.806 164V133.333H253.806V164C293.806 158.667 328.473 160 333.806 160C335.139 160 340.471 160 347.139 160Z" fill="#1D1D1D"/>
</svg>
