<svg width="668" height="668" viewBox="0 0 668 668" fill="none" xmlns="http://www.w3.org/2000/svg">
<path d="M333.812 0.666504C267.885 0.666504 203.438 20.2162 148.622 56.8433C93.8055 93.4704 51.0814 145.53 25.8522 206.439C0.622944 267.347 -5.97817 334.37 6.88357 399.03C19.7453 463.69 51.4922 523.085 98.1097 569.702C144.727 616.32 204.122 648.067 268.782 660.928C333.442 673.79 400.464 667.189 461.373 641.96C522.282 616.73 574.341 574.006 610.968 519.19C647.596 464.374 667.145 399.927 667.145 334C667.145 290.226 658.523 246.881 641.772 206.439C625.02 165.997 600.467 129.25 569.514 98.2976C538.561 67.3447 501.815 42.7916 461.373 26.04C420.931 9.28843 377.586 0.666504 333.812 0.666504ZM333.812 434C314.034 434 294.7 428.135 278.255 417.147C261.81 406.159 248.993 390.541 241.424 372.268C233.855 353.996 231.875 333.889 235.733 314.491C239.592 295.093 249.116 277.274 263.101 263.289C277.087 249.304 294.905 239.78 314.303 235.921C333.701 232.063 353.808 234.043 372.08 241.612C390.353 249.181 405.971 261.998 416.959 278.443C427.947 294.888 433.812 314.222 433.812 334C433.812 360.521 423.276 385.957 404.523 404.711C385.769 423.464 360.334 434 333.812 434Z" fill="#1D1D1D"/>
<path d="M333.812 0.666524C291.562 0.563129 249.689 8.59838 210.479 24.3332L277.145 252.667C293.695 240.823 313.464 234.311 333.812 234C354.557 234.091 374.784 240.484 391.812 252.333L458.479 24.3332C418.852 8.42926 376.509 0.390885 333.812 0.666524ZM333.812 667.333C376.061 667.437 417.935 659.401 457.145 643.667L390.479 415.333C373.929 427.176 354.16 433.689 333.812 434C313.067 433.909 292.84 427.515 275.812 415.667L209.145 643.667C248.771 659.57 291.114 667.609 333.812 667.333ZM667.145 334C667.249 291.75 659.213 249.877 643.479 210.667L415.145 277.333C426.988 293.883 433.501 313.652 433.812 334C433.721 354.745 427.327 374.972 415.479 392L643.479 458.667C659.383 419.04 667.421 376.697 667.145 334ZM0.478536 334C0.375141 376.249 8.41039 418.123 24.1452 457.333L252.479 390.667C240.635 374.117 234.123 354.348 233.812 334C233.903 313.255 240.297 293.028 252.145 276L24.1452 209.333C8.24127 248.959 0.202897 291.302 0.478536 334Z" fill="#EE964B"/>
</svg>
