<svg width="668" height="534" viewBox="0 0 668 534" fill="none" xmlns="http://www.w3.org/2000/svg">
<path d="M634.162 233.667V367C634.162 384.681 627.138 401.638 614.636 414.14C602.134 426.643 585.177 433.667 567.496 433.667H100.829C83.1479 433.667 66.191 426.643 53.6886 414.14C41.1861 401.638 34.1624 384.681 34.1624 367V233.667C34.0196 223.871 36.0374 214.164 40.0724 205.237C44.1073 196.31 50.0601 188.382 57.5072 182.017C64.9544 175.652 73.7128 171.006 83.1594 168.411C92.606 165.815 102.508 165.333 112.162 167C128.239 170.236 142.638 179.091 152.777 191.98C162.917 204.868 168.135 220.947 167.496 237.333V300.333H500.829V237.333C500.19 220.947 505.408 204.868 515.547 191.98C525.687 179.091 540.086 170.236 556.162 167C565.816 165.333 575.719 165.815 585.165 168.411C594.612 171.006 603.37 175.652 610.817 182.017C618.265 188.382 624.217 196.31 628.252 205.237C632.287 214.164 634.305 223.871 634.162 233.667Z" fill="#EE964B"/>
<path d="M100.829 167C100.829 131.638 114.877 97.724 139.882 72.7192C164.886 47.7143 198.8 33.6667 234.162 33.6667H434.162C469.525 33.6667 503.438 47.7143 528.443 72.7192C553.448 97.724 567.496 131.638 567.496 167" stroke="#1D1D1D" stroke-width="66.6667" stroke-linecap="round" stroke-linejoin="round"/>
<path d="M567.496 500.333V433.667M567.496 433.667H100.829M567.496 433.667C585.177 433.667 602.134 426.643 614.636 414.14C627.139 401.638 634.162 384.681 634.162 367V233.667C634.305 223.871 632.287 214.164 628.252 205.237C624.217 196.31 618.265 188.382 610.817 182.017C603.37 175.652 594.612 171.006 585.165 168.411C575.719 165.815 565.816 165.333 556.162 167C540.086 170.236 525.687 179.091 515.547 191.98C505.408 204.868 500.19 220.947 500.829 237.333V300.333H167.496V237.333C168.135 220.947 162.917 204.868 152.777 191.98C142.638 179.091 128.239 170.236 112.162 167C102.508 165.333 92.606 165.815 83.1594 168.411C73.7128 171.006 64.9544 175.652 57.5072 182.017C50.0601 188.382 44.1073 196.31 40.0724 205.237C36.0374 214.164 34.0196 223.871 34.1624 233.667V367C34.1624 384.681 41.1861 401.638 53.6886 414.14C66.191 426.643 83.1479 433.667 100.829 433.667M100.829 500.333V433.667" stroke="#1D1D1D" stroke-width="66.6667" stroke-linecap="round" stroke-linejoin="round"/>
</svg>
